<svg width="29" height="29" viewBox="0 0 29 29" fill="none" xmlns="http://www.w3.org/2000/svg">
<path d="M23.2 23.2C21.5905 23.2 20.3 24.4905 20.3 26.1C20.3 26.8691 20.6055 27.6068 21.1494 28.1506C21.6932 28.6945 22.4309 29 23.2 29C23.9691 29 24.7068 28.6945 25.2506 28.1506C25.7945 27.6068 26.1 26.8691 26.1 26.1C26.1 25.3309 25.7945 24.5932 25.2506 24.0494C24.7068 23.5055 23.9691 23.2 23.2 23.2ZM0 0V2.9H2.9L8.12 13.9055L6.148 17.458C5.9305 17.864 5.8 18.3425 5.8 18.85C5.8 19.6191 6.10554 20.3568 6.64939 20.9006C7.19325 21.4445 7.93087 21.75 8.7 21.75H26.1V18.85H9.309C9.21286 18.85 9.12066 18.8118 9.05267 18.7438C8.98469 18.6758 8.9465 18.5836 8.9465 18.4875C8.9465 18.415 8.961 18.357 8.99 18.3135L10.295 15.95H21.0975C22.185 15.95 23.142 15.341 23.635 14.4565L28.826 5.075C28.9275 4.843 29 4.5965 29 4.35C29 3.96544 28.8472 3.59662 28.5753 3.3247C28.3034 3.05277 27.9346 2.9 27.55 2.9H6.1045L4.7415 0M8.7 23.2C7.0905 23.2 5.8 24.4905 5.8 26.1C5.8 26.8691 6.10554 27.6068 6.64939 28.1506C7.19325 28.6945 7.93087 29 8.7 29C9.46913 29 10.2068 28.6945 10.7506 28.1506C11.2945 27.6068 11.6 26.8691 11.6 26.1C11.6 25.3309 11.2945 24.5932 10.7506 24.0494C10.2068 23.5055 9.46913 23.2 8.7 23.2Z" fill="#F8F6EB"/>
</svg>
