<svg width="175" height="133" viewBox="0 0 175 133" fill="none" xmlns="http://www.w3.org/2000/svg">
<path d="M51.4777 109.49C51.5196 109.239 51.5196 108.987 51.4777 108.736C51.4358 108.484 51.4567 108.212 51.5406 107.919C51.5825 107.835 51.6034 107.688 51.6034 107.479C51.6453 107.269 51.6453 107.102 51.6034 106.976L51.4148 105.027C51.3729 104.692 51.3729 104.357 51.4148 104.022C51.4567 103.645 51.4777 103.267 51.4777 102.89C51.4358 102.723 51.4148 102.576 51.4148 102.45C51.4567 102.283 51.4777 102.115 51.4777 101.948C51.4358 101.487 51.4567 101.005 51.5406 100.502C51.6663 99.9991 51.6872 99.5172 51.6034 99.0563C51.6034 99.0144 51.6034 98.9096 51.6034 98.742C51.6034 98.5744 51.6034 98.4068 51.6034 98.2392C51.6034 98.0297 51.6034 97.8411 51.6034 97.6735C51.6453 97.5059 51.6663 97.4011 51.6663 97.3592C51.7082 96.5631 51.7082 95.725 51.6663 94.8451C51.6663 93.8813 51.6663 93.0223 51.6663 92.2681C51.6663 91.4719 51.7082 90.8015 51.792 90.2568C51.8339 90.0473 51.8548 89.7959 51.8548 89.5025C51.8548 89.1673 51.8548 88.8321 51.8548 88.4969C51.8129 88.036 51.771 87.5331 51.7291 86.9884C51.7291 86.4437 51.7291 85.8989 51.7291 85.3542C51.7291 84.3905 51.7082 83.5524 51.6663 82.8401C51.6663 82.0858 51.6453 81.2268 51.6034 80.2631C51.6034 79.9279 51.5825 79.6136 51.5406 79.3203C51.4987 78.9851 51.4987 78.6498 51.5406 78.3146C51.5406 78.2308 51.5406 78.0213 51.5406 77.6861C51.5406 77.3509 51.5615 77.1413 51.6034 77.0575C51.6034 77.0156 51.6244 76.9737 51.6663 76.9318C51.792 76.8061 51.8967 76.7433 51.9805 76.7433H56.506C57.0926 76.7433 57.6792 76.7433 58.2659 76.7433C58.8944 76.7433 59.4601 76.7642 59.9629 76.8061C60.4238 76.848 60.9057 76.9528 61.4086 77.1204C61.9533 77.288 62.3933 77.4347 62.7285 77.5604C63.8179 77.9375 64.5722 78.2308 64.9912 78.4403C65.4521 78.6498 65.8921 78.9222 66.3111 79.2574C66.6882 79.5507 67.0863 79.8231 67.5053 80.0745C67.9244 80.3259 68.3434 80.6192 68.7624 80.9545C69.1814 81.2478 69.5795 81.6249 69.9566 82.0858C70.3757 82.5048 70.7528 83.0496 71.088 83.72C71.3394 84.2228 71.6327 84.7466 71.9679 85.2914C72.3451 85.8361 72.5127 86.4018 72.4708 86.9884C72.6803 87.6169 72.785 88.1617 72.785 88.6226C72.8269 89.0835 72.9526 89.5025 73.1622 89.8797C73.3717 90.8015 73.4764 91.7653 73.4764 92.7709C73.4764 93.7766 73.3717 94.6984 73.1622 95.5365C73.2041 96.1231 73.1412 96.7097 72.9736 97.2964C72.8479 97.883 72.7641 98.4696 72.7222 99.0563C72.6803 99.5591 72.6174 99.9572 72.5336 100.25C72.4917 100.544 72.4079 100.795 72.2822 101.005C72.1984 101.214 72.0936 101.424 71.9679 101.633C71.8841 101.843 71.7794 102.115 71.6537 102.45C71.6118 102.576 71.507 102.786 71.3394 103.079C71.1718 103.33 70.9832 103.603 70.7737 103.896C70.6061 104.189 70.4176 104.483 70.208 104.776C70.0404 105.027 69.9357 105.216 69.8938 105.342C69.6424 106.054 69.3071 106.578 68.8881 106.913C68.511 107.206 68.0082 107.688 67.3796 108.359C67.2539 108.484 67.0444 108.694 66.7511 108.987C66.4997 109.239 66.2064 109.511 65.8712 109.804C65.5778 110.098 65.2845 110.37 64.9912 110.621C64.6979 110.831 64.4674 110.998 64.2998 111.124C64.1322 111.208 63.8389 111.376 63.4199 111.627C63.0427 111.836 62.6237 112.067 62.1628 112.318C61.7019 112.57 61.2619 112.8 60.8429 113.01C60.4238 113.219 60.1515 113.324 60.0258 113.324C59.6068 113.366 59.062 113.408 58.3916 113.45C57.7211 113.492 57.0298 113.534 56.3174 113.575C55.6051 113.617 54.9137 113.638 54.2433 113.638C53.5728 113.68 53.0281 113.701 52.6091 113.701H51.9177C51.792 113.617 51.7082 113.534 51.6663 113.45C51.6244 113.366 51.5825 113.282 51.5406 113.198C51.4987 113.114 51.4777 113.052 51.4777 113.01V109.49ZM56.1917 101.005C56.1498 102.01 56.1289 103.184 56.1289 104.525C56.1289 105.865 56.1498 107.039 56.1917 108.044C57.4069 107.961 58.4125 107.772 59.2087 107.479C60.0048 107.143 60.8429 106.641 61.7228 105.97C62.3095 105.551 62.7075 105.111 62.917 104.65C63.1684 104.147 63.3989 103.645 63.6084 103.142C63.8179 102.765 63.9855 102.325 64.1113 101.822C64.2789 101.319 64.4465 100.837 64.6141 100.376C64.6979 100.125 64.8026 99.7686 64.9283 99.3077C65.096 98.8468 65.1798 98.4487 65.1798 98.1135C65.1798 97.904 65.2217 97.5059 65.3055 96.9192C65.4312 96.2907 65.4731 95.8717 65.4312 95.6622V94.5308C65.4312 93.7766 65.4521 92.9595 65.494 92.0795C65.5778 91.1996 65.5569 90.1101 65.4312 88.8111V88.434C65.3474 87.3446 65.0541 86.4437 64.5512 85.7313C64.0484 85.019 63.4408 84.2438 62.7285 83.4057C62.3933 82.9867 61.9952 82.6725 61.5343 82.4629C61.1152 82.2534 60.361 81.9601 59.2715 81.583C58.9363 81.4573 58.4754 81.3735 57.8888 81.3316C57.3021 81.2478 56.7783 81.1849 56.3174 81.143C56.2336 81.3106 56.1917 81.4154 56.1917 81.4573V81.583V82.0858C56.1079 82.5467 56.066 83.1334 56.066 83.8457C56.1079 84.5162 56.1289 85.1447 56.1289 85.7313C56.1289 86.4437 56.1498 87.2608 56.1917 88.1826C56.2336 89.1045 56.2127 90.0473 56.1289 91.011C56.1289 91.2205 56.1079 91.451 56.066 91.7024C56.066 91.9538 56.066 92.1843 56.066 92.3938C56.1079 92.9385 56.1079 93.4833 56.066 94.028C56.0241 94.5727 56.066 95.1384 56.1917 95.725C56.1079 96.605 56.087 97.4849 56.1289 98.3649C56.2127 99.2448 56.2336 100.125 56.1917 101.005ZM114.106 114.267C114.022 114.267 113.876 114.288 113.666 114.33C113.457 114.372 113.247 114.393 113.038 114.393C112.828 114.434 112.64 114.455 112.472 114.455C112.346 114.497 112.304 114.518 112.346 114.518H109.267C108.596 114.434 108.03 114.372 107.57 114.33C107.151 114.33 106.773 114.351 106.438 114.393C106.354 114.393 106.271 114.351 106.187 114.267C106.103 114.225 106.04 114.183 105.998 114.141C105.956 113.764 105.935 113.198 105.935 112.444C105.977 111.69 105.998 111.103 105.998 110.684V109.804C106.082 109.092 106.103 108.463 106.061 107.919C106.019 107.332 105.998 106.682 105.998 105.97V104.587C106.208 103.666 106.25 102.702 106.124 101.696C106.04 100.69 105.998 99.7686 105.998 98.9306V82.9029C105.998 82.4839 105.893 82.2744 105.684 82.2744C105.097 82.2325 104.636 82.2115 104.301 82.2115C103.966 82.2115 103.505 82.2325 102.918 82.2744C102.667 82.2744 102.227 82.2115 101.598 82.0858C101.012 81.9601 100.614 81.9182 100.404 81.9601C100.195 82.0439 99.7547 82.0439 99.0843 81.9601C98.4558 81.8763 98.0367 81.8344 97.8272 81.8344C97.6177 81.8344 97.4292 81.8344 97.2616 81.8344C97.0939 81.7925 96.9263 81.7087 96.7587 81.583V77.6861C96.9263 77.6023 97.1778 77.5604 97.513 77.5604C97.8482 77.5604 98.1834 77.5604 98.5186 77.5604C98.9376 77.5604 99.3148 77.5604 99.65 77.5604C99.9852 77.5604 100.299 77.5394 100.593 77.4975C100.677 77.4975 100.97 77.5185 101.473 77.5604C101.976 77.6023 102.395 77.6442 102.73 77.6861C102.981 77.6023 103.233 77.5604 103.484 77.5604C104.113 77.5185 104.699 77.5185 105.244 77.5604C105.621 77.6023 105.893 77.6023 106.061 77.5604C106.229 77.5185 106.48 77.4975 106.815 77.4975H107.821L109.518 77.6232C109.937 77.6232 110.356 77.6232 110.775 77.6232C111.194 77.5813 111.613 77.5813 112.032 77.6232C112.996 77.707 113.918 77.7489 114.798 77.7489C115.72 77.707 116.474 77.6442 117.06 77.5604C117.354 77.5604 117.878 77.6023 118.632 77.6861C119.386 77.7699 120.119 77.8327 120.832 77.8746C121.293 77.9165 121.67 77.9165 121.963 77.8746C122.256 77.8327 122.508 77.8327 122.717 77.8746V80.7659C122.717 80.9335 122.738 81.0383 122.78 81.0802C122.822 81.1221 122.801 81.3106 122.717 81.6458C122.675 81.8135 122.508 81.9182 122.214 81.9601C121.921 81.9601 121.691 81.9601 121.523 81.9601C120.434 82.1277 119.428 82.1906 118.506 82.1487C117.626 82.1068 116.767 82.0858 115.929 82.0858C115.594 82.0858 115.321 82.0858 115.112 82.0858C114.944 82.0858 114.735 82.1068 114.483 82.1487V83.5943C114.483 83.9295 114.462 84.4324 114.421 85.1028C114.421 85.7732 114.421 86.297 114.421 86.6741C114.421 86.8417 114.421 86.9674 114.421 87.0512C114.421 87.1351 114.4 87.2608 114.358 87.4284C114.358 87.5541 114.337 87.7636 114.295 88.0569C114.253 88.3083 114.169 88.6854 114.043 89.1883C114.043 89.9006 114.043 90.5082 114.043 91.011C114.043 91.5138 114.043 91.9748 114.043 92.3938C114.085 92.8128 114.106 93.2318 114.106 93.6509C114.106 94.028 114.106 94.4889 114.106 95.0336V95.6622C113.939 96.3745 113.897 97.0869 113.981 97.7992C114.064 98.5115 114.106 99.2239 114.106 99.9362V114.267Z" fill="#F8F6EB"/>
<path d="M91.1061 114.267C90.8547 114.393 90.5823 114.497 90.289 114.581C90.0376 114.707 89.7862 114.812 89.5348 114.895C89.2833 114.979 88.7596 115.063 87.9634 115.147C87.1673 115.231 86.3711 115.231 85.575 115.147H84.0036C83.6684 115.147 83.3332 115.168 82.998 115.21C82.6628 115.252 82.3276 115.231 81.9923 115.147C80.9448 114.937 80.0648 114.602 79.3525 114.141C78.6402 113.722 78.1373 113.471 77.844 113.387C77.3831 113.261 76.9431 112.968 76.5241 112.507C76.1051 112.004 75.8117 111.627 75.6441 111.376C75.1832 111.04 74.7642 110.642 74.3871 110.181C74.0518 109.679 73.7376 109.197 73.4443 108.736C73.2348 108.233 73.0252 107.793 72.8157 107.416C72.6062 106.997 72.5015 106.557 72.5015 106.096V104.336C72.4177 104.085 72.3967 103.854 72.4386 103.645C72.4805 103.435 72.5015 103.205 72.5015 102.953C72.711 102.283 72.9414 101.633 73.1928 101.005C73.4443 100.376 73.7166 99.7896 74.0099 99.2448C74.2614 98.7839 74.5128 98.323 74.7642 97.8621C75.0156 97.3592 75.3718 96.9402 75.8327 96.605C75.9165 96.4374 75.9794 96.3117 76.0213 96.2279C76.0632 96.1022 76.147 95.9974 76.2727 95.9136C76.7336 95.4108 77.2155 94.9289 77.7183 94.468C78.263 94.007 78.8078 93.609 79.3525 93.2738C79.1849 93.148 79.0592 93.0223 78.9754 92.8966C78.9335 92.7709 78.8287 92.6662 78.6611 92.5824C78.2421 92.2471 77.844 91.891 77.4669 91.5139C77.1317 91.0948 76.7964 90.7177 76.4612 90.3825C76.126 89.9216 75.8117 89.4606 75.5184 88.9997C75.267 88.5388 75.1413 88.036 75.1413 87.4912C75.0575 87.2817 74.9946 87.0722 74.9527 86.8627C74.9108 86.6532 74.827 86.4856 74.7013 86.3599C74.6175 86.1504 74.5547 85.9827 74.5128 85.857C74.5128 85.6894 74.5128 85.4799 74.5128 85.2285V83.0286C74.5128 82.6934 74.5966 82.3582 74.7642 82.023C74.9318 81.6459 75.0575 81.3316 75.1413 81.0802C75.1413 80.6192 75.267 80.2212 75.5184 79.886C75.8117 79.5507 76.0632 79.2155 76.2727 78.8803C76.6079 78.3775 76.985 77.9794 77.404 77.6861C77.865 77.3928 78.284 77.0575 78.6611 76.6804L80.6724 75.989C81.1333 75.9052 81.5733 75.8214 81.9923 75.7376C82.4533 75.6119 82.9142 75.5491 83.3751 75.5491C84.3808 75.7167 85.135 75.8214 85.6378 75.8633C86.1407 75.8633 86.5597 75.9681 86.8949 76.1776C87.3558 76.429 87.7539 76.7223 88.0891 77.0576C88.4243 77.3509 88.7596 77.728 89.0948 78.1889C89.43 78.3984 89.7024 78.6708 89.9119 79.006C90.1633 79.3412 90.3938 79.6764 90.6033 80.0117C90.729 80.0955 90.8128 80.2002 90.8547 80.3259C90.8966 80.4516 90.9804 80.6193 91.1061 80.8288C91.3156 81.164 91.4413 81.5621 91.4832 82.023C91.5251 82.442 91.5461 82.882 91.5461 83.3429C91.5461 83.8876 91.4204 84.5371 91.1689 85.2914C90.9175 86.0037 90.729 86.5903 90.6033 87.0513C90.3938 87.3865 90.1842 87.7217 89.9747 88.0569C89.7652 88.3921 89.5557 88.7274 89.3462 89.0626C88.8015 89.7749 88.1729 90.5082 87.4606 91.2624C86.7902 92.0167 86.0778 92.6033 85.3236 93.0223L85.7635 93.7137C86.0988 94.0489 86.434 94.3842 86.7692 94.7194C87.1044 95.0546 87.4396 95.3898 87.7749 95.725C88.1101 96.186 88.4453 96.5421 88.7805 96.7935C89.1157 97.045 89.43 97.4221 89.7233 97.9249C90.4357 98.3858 91.0642 98.9515 91.6089 99.622C92.1537 100.25 92.7193 100.858 93.306 101.445C93.8507 101.864 94.2488 102.283 94.5002 102.702C94.7516 103.079 95.1706 103.686 95.7573 104.525C95.9668 104.441 96.1553 104.357 96.3229 104.273C96.4905 104.189 96.6791 104.126 96.8886 104.085C97.4752 103.833 97.9781 103.603 98.3971 103.393C98.8161 103.142 99.2561 102.786 99.717 102.325C99.8008 102.241 99.8427 102.178 99.8427 102.136C99.8846 102.052 99.9894 102.01 100.157 102.01C100.367 102.01 100.534 102.094 100.66 102.262C100.786 102.388 100.932 102.555 101.1 102.765C101.309 102.932 101.477 103.1 101.603 103.267C101.728 103.435 101.917 103.624 102.168 103.833C102.168 103.917 102.189 103.98 102.231 104.022C102.315 104.189 102.357 104.294 102.357 104.336C102.273 104.504 102.085 104.755 101.791 105.09C101.54 105.384 101.309 105.635 101.1 105.844C100.848 106.054 100.597 106.326 100.346 106.662C100.094 106.997 99.8637 107.269 99.6542 107.479L100.157 108.296C100.618 108.84 101.1 109.343 101.603 109.804C102.105 110.223 102.566 110.705 102.985 111.25L103.488 111.627L104.117 112.318C104.075 112.486 104.012 112.612 103.928 112.695C103.383 113.408 103.006 114.141 102.797 114.895C102.587 114.895 102.441 114.853 102.357 114.77C102.273 114.686 102.126 114.602 101.917 114.518L96.6372 110.496C96.3858 110.873 96.0925 111.166 95.7573 111.376C95.422 111.585 95.1287 111.816 94.8773 112.067C94.6678 112.193 94.4373 112.339 94.1859 112.507C93.9764 112.675 93.7669 112.8 93.5574 112.884C93.306 113.219 93.0755 113.387 92.866 113.387C92.6565 113.471 92.3632 113.617 91.986 113.827C91.6508 114.036 91.3575 114.183 91.1061 114.267ZM84.1922 109.364C84.276 109.364 84.5065 109.406 84.8836 109.49C85.2607 109.532 85.6588 109.595 86.0778 109.679C86.4968 109.72 86.8949 109.762 87.272 109.804C87.6492 109.846 87.9006 109.867 88.0263 109.867C88.6548 109.658 89.3043 109.574 89.9747 109.616C90.6871 109.616 91.2737 109.406 91.7346 108.987C91.986 108.861 92.2165 108.736 92.426 108.61C92.6355 108.484 92.845 108.38 93.0546 108.296C93.306 108.17 93.5364 108.023 93.7459 107.856C93.9555 107.688 94.1859 107.521 94.4373 107.353C94.3116 107.269 94.2278 107.185 94.1859 107.102C94.144 106.976 94.0602 106.871 93.9345 106.787C93.3898 106.452 92.845 105.991 92.3003 105.404C91.7556 104.818 91.1899 104.294 90.6033 103.833C90.3938 103.624 90.1842 103.456 89.9747 103.33C89.7652 103.163 89.5557 102.974 89.3462 102.765C88.6758 102.178 88.0263 101.612 87.3977 101.068C86.7692 100.523 86.1616 99.9153 85.575 99.2448L82.4952 96.1022C82.3695 96.0184 82.2018 95.9136 81.9923 95.7879C81.8247 95.6203 81.6362 95.4736 81.4267 95.3479C81.2171 95.725 80.9029 96.1441 80.4839 96.605C80.1067 97.0659 79.8763 97.4221 79.7925 97.6735C79.3734 98.8049 79.1639 99.7686 79.1639 100.565C79.0801 101.026 79.0592 101.445 79.1011 101.822C79.143 102.157 79.1639 102.534 79.1639 102.953C79.3734 103.666 79.6039 104.336 79.8553 104.965C80.1067 105.593 80.442 106.201 80.861 106.787C81.1962 107.416 81.6781 107.919 82.3066 108.296C82.9351 108.673 83.5637 109.029 84.1922 109.364ZM80.6724 83.7829C80.3372 83.9924 80.0648 84.2857 79.8553 84.6628C79.6458 85.0399 79.5411 85.3961 79.5411 85.7313C79.5411 86.0666 79.562 86.4018 79.6039 86.737C79.6458 87.0303 79.7925 87.2817 80.0439 87.4912C80.2534 87.7007 80.421 87.8893 80.5467 88.0569C80.6724 88.2245 80.8191 88.434 80.9867 88.6854C80.9867 88.8112 81.0495 88.9788 81.1752 89.1883C81.3429 89.3559 81.5314 89.5444 81.7409 89.754C81.9504 89.9635 82.1599 90.152 82.3695 90.3196C82.579 90.4453 82.7256 90.5292 82.8094 90.5711C83.0189 90.4872 83.2704 90.2149 83.5637 89.754C83.857 89.293 84.0665 88.8321 84.1922 88.3712C84.3598 88.1617 84.4855 87.9312 84.5693 87.6798C84.695 87.4284 84.7579 87.1979 84.7579 86.9884C84.8417 86.6532 84.8417 86.2551 84.7579 85.7942C84.716 85.2914 84.6322 84.9771 84.5065 84.8514C84.2551 84.6419 84.0037 84.4324 83.7522 84.2228C83.5427 84.0133 83.3332 83.8667 83.1237 83.7829C82.998 83.6572 82.8723 83.5943 82.7466 83.5943C82.6209 83.5524 82.4533 83.5315 82.2438 83.5315C82.0342 83.5315 81.7828 83.5315 81.4895 83.5315C81.2381 83.5315 80.9657 83.6153 80.6724 83.7829Z" fill="#F8F6EB"/>
<g clip-path="url(#clip0_15_29)">
<path fill-rule="evenodd" clip-rule="evenodd" d="M93.5716 0C90.6774 0 87.5224 0.582932 84.9708 1.79993C82.5624 2.94534 79.7039 5.20037 79.7039 8.90761C79.7039 11.3314 81.5908 12.5484 82.322 12.983C82.7822 13.2489 83.2782 13.4944 83.6822 13.6836L83.8561 13.7654C84.2208 13.9358 84.577 14.1114 84.9248 14.2921C86.4486 15.0898 87.7934 16.0818 88.5144 18.1834C89.4757 20.9958 88.7189 23.4809 86.5304 25.4649C84.2191 27.5614 80.1693 29.1313 74.8002 29.1313C70.9804 29.1313 67.7947 28.6915 65.0028 27.5972C62.2518 26.5132 59.7155 24.7235 57.2866 21.7781C56.7396 21.1507 55.9693 20.7615 55.1397 20.6933C54.3101 20.6251 53.4866 20.8832 52.8444 21.4128C52.2023 21.9425 51.792 22.7017 51.7011 23.5291C51.6101 24.3566 51.8455 25.1868 52.3573 25.8433C55.4202 29.5557 58.8207 32.0306 62.666 33.539C66.4653 35.0373 70.5253 35.5231 74.8002 35.5231C81.2942 35.5231 87.0315 33.6311 90.8206 30.2051C94.7374 26.6564 96.4198 21.5531 94.5636 16.1176C93.096 11.8172 90.12 9.79223 87.8803 8.62126L86.8065 8.09457C87.0451 7.92412 87.3502 7.74856 87.7218 7.56789C89.2405 6.84178 91.4188 6.3918 93.5716 6.3918C101.4 6.3918 105.915 8.94852 108.702 11.7609C111.545 14.6347 112.844 18.0095 113.765 20.3975L113.805 20.5202C115.795 25.6848 116.551 30.967 116.756 36.5611C116.788 37.4087 117.155 38.2089 117.777 38.7857C118.399 39.3625 119.224 39.6687 120.072 39.6368C120.92 39.6049 121.72 39.2377 122.297 38.6158C122.873 37.9939 123.18 37.1684 123.148 36.3208C122.923 30.3073 122.094 24.2633 119.773 18.2192L119.671 17.9584C118.75 15.5551 117.042 11.1064 113.243 7.2662C109.183 3.16522 103.001 0 93.5716 0ZM67.038 41.5211C68.7331 40.515 70.6766 40.0048 72.6474 40.0484C74.9484 40.0484 76.7484 40.6109 78.2568 41.5211C79.5914 42.329 80.6295 43.3722 81.4374 44.1852L81.5959 44.3437C82.4857 45.2437 83.1657 45.888 84.0043 46.3584C84.7867 46.7931 85.8196 47.1408 87.4201 47.1408C89.0206 47.1408 90.0535 46.7931 90.8359 46.3584C91.6745 45.888 92.3546 45.2437 93.2443 44.3437L93.3977 44.1903C94.3456 43.1727 95.4156 42.2762 96.5834 41.5211C98.2786 40.515 100.222 40.0048 102.193 40.0484C104.494 40.0484 106.294 40.6109 107.802 41.5211C109.137 42.329 110.175 43.3722 110.983 44.1852L111.136 44.3437C112.031 45.2437 112.711 45.888 113.55 46.3584C114.332 46.7931 115.365 47.1408 116.966 47.1408H120.657C121.336 47.1408 121.986 47.4102 122.465 47.8896C122.945 48.3691 123.214 49.0194 123.214 49.6975V57.654H116.966C115.467 57.654 114.542 57.337 113.862 56.9535C113.11 56.5342 112.486 55.9512 111.591 55.0513L111.428 54.8876C110.448 53.8346 109.342 52.9071 108.135 52.1264C106.338 51.0636 104.28 50.5218 102.193 50.5617C99.7793 50.5617 97.8618 51.1599 96.251 52.1315C95.0387 52.9059 93.9303 53.8321 92.9529 54.8876L92.7892 55.0513C91.8995 55.9512 91.2757 56.5342 90.524 56.9535C89.8439 57.337 88.9184 57.654 87.4201 57.654C85.9219 57.654 84.9963 57.337 84.3163 56.9535C83.5646 56.5342 82.9459 55.9512 82.051 55.0513L81.8874 54.8876C81.0846 54.0797 79.9954 52.9803 78.5892 52.1264C76.7922 51.0636 74.7348 50.5218 72.6474 50.5617C70.2339 50.5617 68.3163 51.1599 66.7056 52.1315C65.495 52.9062 64.3884 53.8324 63.4125 54.8876L63.2489 55.0513C62.354 55.9512 61.7302 56.5342 60.9785 56.9535C60.2984 57.337 59.3729 57.654 57.8747 57.654H51.6261V49.7026C51.6261 49.0245 51.8954 48.3742 52.3749 47.8947C52.8544 47.4153 53.5047 47.1459 54.1828 47.1459H57.8747C59.4752 47.1459 60.5081 46.7982 61.2905 46.3635C62.1291 45.8931 62.8091 45.2488 63.6989 44.3489L63.8574 44.1954C64.7999 43.1743 65.8687 42.2773 67.038 41.5262M116.966 64.0509H123.214V67.7582C123.214 68.4363 122.945 69.0866 122.465 69.566C121.986 70.0455 121.336 70.3149 120.657 70.3149C120.657 70.3149 100.408 71.5881 87.4201 71.5881C74.432 71.5881 54.1828 70.3098 54.1828 70.3098C53.5047 70.3098 52.8544 70.0404 52.3749 69.5609C51.8954 69.0815 51.6261 68.4311 51.6261 67.7531V64.0458H57.8747C60.4007 64.0458 62.4103 63.4833 64.1028 62.5322C65.7238 61.622 66.905 60.4357 67.7794 59.5613C68.7254 58.6051 69.3083 58.0273 70.0089 57.6029C70.602 57.2449 71.3742 56.9535 72.6474 56.9535C73.9206 56.9535 74.6928 57.2449 75.2859 57.6029C75.9865 58.0273 76.5643 58.6051 77.5205 59.5613C78.3898 60.4306 79.571 61.622 81.192 62.5271C82.8845 63.4782 84.8941 64.0458 87.4201 64.0458C89.9462 64.0458 91.9557 63.4833 93.6483 62.5322C95.2692 61.622 96.4505 60.4357 97.3197 59.5613C98.2708 58.6051 98.8538 58.0273 99.5543 57.6029C100.353 57.1371 101.269 56.9117 102.193 56.9535C103.471 56.9535 104.238 57.2449 104.831 57.6029C105.532 58.0273 106.11 58.6051 107.061 59.5613C107.93 60.4306 109.116 61.622 110.737 62.5271C112.425 63.4782 114.44 64.0458 116.966 64.0458" fill="#F8F6EB"/>
</g>
<defs>
<clipPath id="clip0_15_29">
<rect width="71.5881" height="71.5881" fill="white" transform="translate(51.6261)"/>
</clipPath>
</defs>
</svg>
